<svg width="12" height="12" viewBox="0 0 12 12" fill="none" xmlns="http://www.w3.org/2000/svg">
<g opacity="0.2">
<path d="M6 0.166668C2.7834 0.166668 0.166666 2.7834 0.166666 6C0.166666 9.2166 2.7834 11.8333 6 11.8333C9.2166 11.8333 11.8333 9.2166 11.8333 6C11.8333 2.7834 9.2166 0.166668 6 0.166668ZM5.75694 9.40278C5.35444 9.40278 5.02778 9.07611 5.02778 8.67361C5.02778 8.27111 5.35444 7.94445 5.75694 7.94445C6.15944 7.94445 6.48611 8.27111 6.48611 8.67361C6.48611 9.07611 6.15944 9.40278 5.75694 9.40278ZM7.85257 5.08952C7.70236 5.33014 7.41701 5.60042 6.99604 5.90083C6.315 6.40445 6.33347 6.51625 6.33347 6.97222H5.1391C5.1391 6.6159 5.13132 6.34222 5.32382 6.00924C5.44681 5.79584 5.67236 5.56882 6 5.32868C6.39326 5.04771 6.77535 4.77695 6.77535 4.30542C6.77535 3.86354 6.39715 3.70604 5.95528 3.70604C5.50465 3.70604 4.99083 3.85333 4.41382 4.14792L3.92236 3.16111C4.9709 2.5734 6.62562 2.3075 7.53028 3.04396C8.19431 3.585 8.19819 4.53632 7.85257 5.08952Z" fill="#1E1A3E"/>
</g>
</svg>
